<mxfile host="app.diagrams.net" modified="2024-05-14T22:34:23.610Z" agent="Mozilla/5.0 (Windows NT 10.0; Win64; x64) AppleWebKit/537.36 (KHTML, like Gecko) Chrome/124.0.0.0 Safari/537.36" version="24.4.0" etag="hV_8Ft96ZkA5UDN5mrqB" type="github">
  <diagram name="Page-1" id="ePcz_Qcr0WHEEhHu2J7x">
    <mxGraphModel>
      <root>
        <mxCell id="0" />
        <mxCell id="1" parent="0" />
      </root>
    </mxGraphModel>
  </diagram>
</mxfile>
